<svg width="408" height="405" viewBox="0 0 408 405" fill="none" xmlns="http://www.w3.org/2000/svg">
<circle cx="203.603" cy="201.985" r="109.736" fill="#FCD884"/>
<line x1="205.682" y1="5" x2="205.682" y2="84.0121" stroke="#FCD884" stroke-width="10" stroke-linecap="round"/>
<line x1="84.8709" y1="206.554" x2="5.00851" y2="206.691" stroke="#FCD884" stroke-width="10" stroke-linecap="round"/>
<line x1="402.846" y1="206.554" x2="322.983" y2="206.691" stroke="#FCD884" stroke-width="10" stroke-linecap="round"/>
<line x1="205.682" y1="318.97" x2="205.682" y2="399.6" stroke="#FCD884" stroke-width="10" stroke-linecap="round"/>
<line x1="349.074" y1="70.6374" x2="290.747" y2="125.19" stroke="#FCD884" stroke-width="10" stroke-linecap="round"/>
<line x1="118.737" y1="286.069" x2="60.4095" y2="340.622" stroke="#FCD884" stroke-width="10" stroke-linecap="round"/>
<line x1="299.93" y1="84.7185" x2="278.927" y2="110.434" stroke="#FCD884" stroke-width="10" stroke-linecap="round"/>
<line x1="134.671" y1="299.987" x2="110.633" y2="327.4" stroke="#FCD884" stroke-width="10" stroke-linecap="round"/>
<line x1="332.112" y1="118.621" x2="304.738" y2="137.411" stroke="#FCD884" stroke-width="10" stroke-linecap="round"/>
<line x1="105.477" y1="270.775" x2="74.9482" y2="292.608" stroke="#FCD884" stroke-width="10" stroke-linecap="round"/>
<line x1="64.1393" y1="59.6427" x2="120.998" y2="115.724" stroke="#FCD884" stroke-width="10" stroke-linecap="round"/>
<line x1="290.291" y1="283.171" x2="347.15" y2="339.252" stroke="#FCD884" stroke-width="10" stroke-linecap="round"/>
<line x1="115.451" y1="75.3076" x2="135.895" y2="101.471" stroke="#FCD884" stroke-width="10" stroke-linecap="round"/>
<line x1="275.673" y1="297.029" x2="296.117" y2="323.192" stroke="#FCD884" stroke-width="10" stroke-linecap="round"/>
<line x1="78.1211" y1="111.793" x2="108.598" y2="131.434" stroke="#FCD884" stroke-width="10" stroke-linecap="round"/>
<line x1="304.791" y1="269.312" x2="331.242" y2="289.382" stroke="#FCD884" stroke-width="10" stroke-linecap="round"/>
<path d="M221.46 122.79C232.519 124.678 258.36 134.766 273.249 160.013" stroke="#E0BA6F" stroke-width="10" stroke-linecap="round" stroke-linejoin="round"/>
<circle cx="281.028" cy="174.004" r="5.48168" fill="#E0BA6F"/>
</svg>
